<?xml version="1.0" standalone="no"?>
<!DOCTYPE svg PUBLIC "-//W3C//DTD SVG 20010904//EN"
 "http://www.w3.org/TR/2001/REC-SVG-20010904/DTD/svg10.dtd">
<svg version="1.0" xmlns="http://www.w3.org/2000/svg"
 width="700.000000pt" height="700.000000pt" viewBox="0 0 700.000000 700.000000"
 preserveAspectRatio="xMidYMid meet">
<g transform="translate(0.000000,700.000000) scale(0.100000,-0.100000)"
fill="#000000" stroke="none">
<path d="M3298 6665 c-1 -1 -25 -5 -53 -9 -751 -91 -1410 -607 -1681 -1316
-40 -105 -89 -273 -98 -335 -8 -54 -16 -98 -21 -112 -2 -6 -7 -54 -10 -105 -4
-51 -8 -103 -10 -114 -3 -20 2 -22 63 -28 139 -14 190 -21 220 -30 9 -3 35 -7
57 -11 58 -8 245 -61 300 -85 11 -4 47 -18 80 -31 229 -86 498 -265 700 -464
83 -82 265 -294 265 -309 0 -2 25 -41 55 -87 94 -141 226 -437 260 -582 43
-183 60 -291 71 -442 3 -38 6 -75 8 -81 2 -5 27 -9 57 -8 68 3 188 13 214 18
11 2 42 7 68 10 238 35 507 136 740 279 345 211 619 516 791 877 142 301 199
558 200 900 0 220 -19 363 -79 571 -182 633 -678 1160 -1295 1377 -170 60
-209 70 -431 108 -36 6 -465 15 -471 9z"/>
<path d="M1425 2510 c-2 -3 -3 -470 -3 -1039 l-1 -1034 122 6 c67 4 131 8 142
11 11 2 54 9 95 16 178 28 366 89 542 175 62 31 122 61 132 68 125 77 166 105
242 164 175 135 362 342 491 543 61 95 166 319 208 442 62 185 98 391 99 568
l1 85 -1033 0 c-569 0 -1035 -2 -1037 -5z"/>
</g>
</svg>
